<mxfile host="app.diagrams.net" modified="2020-05-12T11:03:46.881Z" agent="5.0 (Windows NT 10.0; Win64; x64) AppleWebKit/537.36 (KHTML, like Gecko) Chrome/81.0.4044.138 Safari/537.36" etag="DvFdZW09TYOYsFPVDO0U" version="13.1.0" type="github">
  <diagram id="X5nhNn54w9-DPyJ9hYwQ" name="Page-1">
    <mxGraphModel dx="1422" dy="762" grid="1" gridSize="10" guides="1" tooltips="1" connect="1" arrows="1" fold="1" page="1" pageScale="1" pageWidth="827" pageHeight="1169" math="0" shadow="0">
      <root>
        <mxCell id="0" />
        <mxCell id="1" parent="0" />
        <mxCell id="qaZZmKHdU_g0IZXwKH5g-3" style="edgeStyle=orthogonalEdgeStyle;rounded=0;orthogonalLoop=1;jettySize=auto;html=1;exitX=1;exitY=0.5;exitDx=0;exitDy=0;entryX=0;entryY=0.5;entryDx=0;entryDy=0;fontSize=14;" edge="1" parent="1" source="d1Oq-qGcMdM5WaBHT3wK-1" target="qaZZmKHdU_g0IZXwKH5g-1">
          <mxGeometry relative="1" as="geometry" />
        </mxCell>
        <mxCell id="qaZZmKHdU_g0IZXwKH5g-4" value="Account" style="edgeLabel;html=1;align=center;verticalAlign=middle;resizable=0;points=[];fontSize=14;" vertex="1" connectable="0" parent="qaZZmKHdU_g0IZXwKH5g-3">
          <mxGeometry x="-0.3231" y="1" relative="1" as="geometry">
            <mxPoint y="-9" as="offset" />
          </mxGeometry>
        </mxCell>
        <mxCell id="d1Oq-qGcMdM5WaBHT3wK-1" value="Ambulance" style="rounded=0;whiteSpace=wrap;html=1;fontStyle=1;fontSize=14;" parent="1" vertex="1">
          <mxGeometry x="40" y="80" width="150" height="60" as="geometry" />
        </mxCell>
        <mxCell id="qaZZmKHdU_g0IZXwKH5g-6" value="" style="edgeStyle=orthogonalEdgeStyle;rounded=0;orthogonalLoop=1;jettySize=auto;html=1;fontSize=14;" edge="1" parent="1" source="qaZZmKHdU_g0IZXwKH5g-1" target="qaZZmKHdU_g0IZXwKH5g-7">
          <mxGeometry relative="1" as="geometry">
            <mxPoint x="520" y="110" as="targetPoint" />
          </mxGeometry>
        </mxCell>
        <mxCell id="qaZZmKHdU_g0IZXwKH5g-11" value="Home" style="edgeLabel;html=1;align=center;verticalAlign=middle;resizable=0;points=[];fontSize=14;" vertex="1" connectable="0" parent="qaZZmKHdU_g0IZXwKH5g-6">
          <mxGeometry x="-0.25" y="-1" relative="1" as="geometry">
            <mxPoint y="-11" as="offset" />
          </mxGeometry>
        </mxCell>
        <mxCell id="qaZZmKHdU_g0IZXwKH5g-14" style="edgeStyle=orthogonalEdgeStyle;rounded=0;orthogonalLoop=1;jettySize=auto;html=1;exitX=1;exitY=0.75;exitDx=0;exitDy=0;entryX=0;entryY=0.5;entryDx=0;entryDy=0;fontSize=14;" edge="1" parent="1" source="qaZZmKHdU_g0IZXwKH5g-1" target="qaZZmKHdU_g0IZXwKH5g-12">
          <mxGeometry relative="1" as="geometry" />
        </mxCell>
        <mxCell id="qaZZmKHdU_g0IZXwKH5g-15" value="Home" style="edgeLabel;html=1;align=center;verticalAlign=middle;resizable=0;points=[];fontSize=14;" vertex="1" connectable="0" parent="qaZZmKHdU_g0IZXwKH5g-14">
          <mxGeometry x="-0.8877" y="1" relative="1" as="geometry">
            <mxPoint x="44" y="26" as="offset" />
          </mxGeometry>
        </mxCell>
        <mxCell id="qaZZmKHdU_g0IZXwKH5g-31" style="edgeStyle=orthogonalEdgeStyle;rounded=0;orthogonalLoop=1;jettySize=auto;html=1;exitX=0.5;exitY=1;exitDx=0;exitDy=0;entryX=0.5;entryY=0;entryDx=0;entryDy=0;fontSize=14;" edge="1" parent="1" source="qaZZmKHdU_g0IZXwKH5g-1" target="qaZZmKHdU_g0IZXwKH5g-30">
          <mxGeometry relative="1" as="geometry" />
        </mxCell>
        <mxCell id="qaZZmKHdU_g0IZXwKH5g-32" value="Home" style="edgeLabel;html=1;align=center;verticalAlign=middle;resizable=0;points=[];fontSize=14;" vertex="1" connectable="0" parent="qaZZmKHdU_g0IZXwKH5g-31">
          <mxGeometry x="-0.3" y="1" relative="1" as="geometry">
            <mxPoint as="offset" />
          </mxGeometry>
        </mxCell>
        <mxCell id="qaZZmKHdU_g0IZXwKH5g-1" value="Login" style="whiteSpace=wrap;html=1;aspect=fixed;fontSize=14;" vertex="1" parent="1">
          <mxGeometry x="300" y="40" width="140" height="140" as="geometry" />
        </mxCell>
        <mxCell id="qaZZmKHdU_g0IZXwKH5g-2" value="1.0" style="rounded=0;whiteSpace=wrap;html=1;fontSize=14;" vertex="1" parent="1">
          <mxGeometry x="300" y="40" width="140" height="30" as="geometry" />
        </mxCell>
        <mxCell id="qaZZmKHdU_g0IZXwKH5g-9" style="edgeStyle=orthogonalEdgeStyle;rounded=0;orthogonalLoop=1;jettySize=auto;html=1;entryX=0.5;entryY=0;entryDx=0;entryDy=0;fontSize=14;" edge="1" parent="1" source="qaZZmKHdU_g0IZXwKH5g-7" target="d1Oq-qGcMdM5WaBHT3wK-1">
          <mxGeometry relative="1" as="geometry">
            <Array as="points">
              <mxPoint x="630" y="30" />
              <mxPoint x="115" y="30" />
            </Array>
          </mxGeometry>
        </mxCell>
        <mxCell id="qaZZmKHdU_g0IZXwKH5g-10" value="new account info" style="edgeLabel;html=1;align=center;verticalAlign=middle;resizable=0;points=[];fontSize=14;" vertex="1" connectable="0" parent="qaZZmKHdU_g0IZXwKH5g-9">
          <mxGeometry x="-0.0017" y="-1" relative="1" as="geometry">
            <mxPoint y="-9" as="offset" />
          </mxGeometry>
        </mxCell>
        <mxCell id="qaZZmKHdU_g0IZXwKH5g-7" value="Edit Profile / View Profile" style="whiteSpace=wrap;html=1;aspect=fixed;fontSize=14;" vertex="1" parent="1">
          <mxGeometry x="560" y="40" width="140" height="140" as="geometry" />
        </mxCell>
        <mxCell id="qaZZmKHdU_g0IZXwKH5g-8" value="2.0" style="rounded=0;whiteSpace=wrap;html=1;fontSize=14;" vertex="1" parent="1">
          <mxGeometry x="560" y="40" width="140" height="30" as="geometry" />
        </mxCell>
        <mxCell id="qaZZmKHdU_g0IZXwKH5g-17" value="" style="edgeStyle=orthogonalEdgeStyle;rounded=0;orthogonalLoop=1;jettySize=auto;html=1;fontSize=14;entryX=0.5;entryY=0;entryDx=0;entryDy=0;" edge="1" parent="1" source="qaZZmKHdU_g0IZXwKH5g-12" target="qaZZmKHdU_g0IZXwKH5g-19">
          <mxGeometry relative="1" as="geometry">
            <mxPoint x="630" y="460" as="targetPoint" />
          </mxGeometry>
        </mxCell>
        <mxCell id="qaZZmKHdU_g0IZXwKH5g-24" value="Request" style="edgeLabel;html=1;align=center;verticalAlign=middle;resizable=0;points=[];fontSize=14;" vertex="1" connectable="0" parent="qaZZmKHdU_g0IZXwKH5g-17">
          <mxGeometry x="-0.2667" y="-3" relative="1" as="geometry">
            <mxPoint as="offset" />
          </mxGeometry>
        </mxCell>
        <mxCell id="qaZZmKHdU_g0IZXwKH5g-12" value="View Patient requests" style="whiteSpace=wrap;html=1;aspect=fixed;fontSize=14;" vertex="1" parent="1">
          <mxGeometry x="560" y="240" width="140" height="140" as="geometry" />
        </mxCell>
        <mxCell id="qaZZmKHdU_g0IZXwKH5g-13" value="3.0" style="rounded=0;whiteSpace=wrap;html=1;fontSize=14;" vertex="1" parent="1">
          <mxGeometry x="560" y="240" width="140" height="30" as="geometry" />
        </mxCell>
        <mxCell id="qaZZmKHdU_g0IZXwKH5g-22" style="edgeStyle=orthogonalEdgeStyle;rounded=0;orthogonalLoop=1;jettySize=auto;html=1;exitX=0;exitY=0.5;exitDx=0;exitDy=0;entryX=0.12;entryY=1;entryDx=0;entryDy=0;entryPerimeter=0;fontSize=14;" edge="1" parent="1" source="qaZZmKHdU_g0IZXwKH5g-18" target="d1Oq-qGcMdM5WaBHT3wK-1">
          <mxGeometry relative="1" as="geometry" />
        </mxCell>
        <mxCell id="qaZZmKHdU_g0IZXwKH5g-23" value="Patient Info" style="edgeLabel;html=1;align=center;verticalAlign=middle;resizable=0;points=[];fontSize=14;" vertex="1" connectable="0" parent="qaZZmKHdU_g0IZXwKH5g-22">
          <mxGeometry x="-0.5876" y="-1" relative="1" as="geometry">
            <mxPoint as="offset" />
          </mxGeometry>
        </mxCell>
        <mxCell id="qaZZmKHdU_g0IZXwKH5g-18" value="View Request" style="whiteSpace=wrap;html=1;aspect=fixed;fontSize=14;" vertex="1" parent="1">
          <mxGeometry x="560" y="470" width="140" height="140" as="geometry" />
        </mxCell>
        <mxCell id="qaZZmKHdU_g0IZXwKH5g-19" value="4.0" style="rounded=0;whiteSpace=wrap;html=1;fontSize=14;" vertex="1" parent="1">
          <mxGeometry x="560" y="470" width="140" height="30" as="geometry" />
        </mxCell>
        <mxCell id="qaZZmKHdU_g0IZXwKH5g-25" style="edgeStyle=orthogonalEdgeStyle;rounded=0;orthogonalLoop=1;jettySize=auto;html=1;exitX=0;exitY=0.914;exitDx=0;exitDy=0;entryX=0.75;entryY=0;entryDx=0;entryDy=0;fontSize=14;exitPerimeter=0;" edge="1" parent="1" source="qaZZmKHdU_g0IZXwKH5g-1" target="qaZZmKHdU_g0IZXwKH5g-20">
          <mxGeometry relative="1" as="geometry" />
        </mxCell>
        <mxCell id="qaZZmKHdU_g0IZXwKH5g-28" value="Send" style="edgeLabel;html=1;align=center;verticalAlign=middle;resizable=0;points=[];fontSize=14;" vertex="1" connectable="0" parent="qaZZmKHdU_g0IZXwKH5g-25">
          <mxGeometry x="-0.1963" relative="1" as="geometry">
            <mxPoint as="offset" />
          </mxGeometry>
        </mxCell>
        <mxCell id="qaZZmKHdU_g0IZXwKH5g-26" style="edgeStyle=orthogonalEdgeStyle;rounded=0;orthogonalLoop=1;jettySize=auto;html=1;exitX=0.5;exitY=0;exitDx=0;exitDy=0;entryX=0;entryY=0.75;entryDx=0;entryDy=0;fontSize=14;" edge="1" parent="1" source="qaZZmKHdU_g0IZXwKH5g-20" target="qaZZmKHdU_g0IZXwKH5g-1">
          <mxGeometry relative="1" as="geometry" />
        </mxCell>
        <mxCell id="qaZZmKHdU_g0IZXwKH5g-27" value="Reply" style="edgeLabel;html=1;align=center;verticalAlign=middle;resizable=0;points=[];fontSize=14;" vertex="1" connectable="0" parent="qaZZmKHdU_g0IZXwKH5g-26">
          <mxGeometry x="-0.2121" y="-19" relative="1" as="geometry">
            <mxPoint x="19" y="-20" as="offset" />
          </mxGeometry>
        </mxCell>
        <mxCell id="qaZZmKHdU_g0IZXwKH5g-20" value="Data Store" style="rounded=0;whiteSpace=wrap;html=1;fontSize=14;align=right;" vertex="1" parent="1">
          <mxGeometry x="130" y="210" width="140" height="50" as="geometry" />
        </mxCell>
        <mxCell id="qaZZmKHdU_g0IZXwKH5g-21" value="DS1" style="whiteSpace=wrap;html=1;aspect=fixed;fontSize=14;" vertex="1" parent="1">
          <mxGeometry x="130" y="210" width="50" height="50" as="geometry" />
        </mxCell>
        <mxCell id="qaZZmKHdU_g0IZXwKH5g-33" style="edgeStyle=orthogonalEdgeStyle;rounded=0;orthogonalLoop=1;jettySize=auto;html=1;entryX=0.367;entryY=1.017;entryDx=0;entryDy=0;entryPerimeter=0;fontSize=14;" edge="1" parent="1" source="qaZZmKHdU_g0IZXwKH5g-29" target="d1Oq-qGcMdM5WaBHT3wK-1">
          <mxGeometry relative="1" as="geometry" />
        </mxCell>
        <mxCell id="qaZZmKHdU_g0IZXwKH5g-34" value="Report sent message" style="edgeLabel;html=1;align=center;verticalAlign=middle;resizable=0;points=[];fontSize=14;" vertex="1" connectable="0" parent="qaZZmKHdU_g0IZXwKH5g-33">
          <mxGeometry x="-0.4443" relative="1" as="geometry">
            <mxPoint as="offset" />
          </mxGeometry>
        </mxCell>
        <mxCell id="qaZZmKHdU_g0IZXwKH5g-29" value="Make Report" style="whiteSpace=wrap;html=1;aspect=fixed;fontSize=14;" vertex="1" parent="1">
          <mxGeometry x="300" y="280" width="140" height="140" as="geometry" />
        </mxCell>
        <mxCell id="qaZZmKHdU_g0IZXwKH5g-30" value="5.0" style="rounded=0;whiteSpace=wrap;html=1;fontSize=14;" vertex="1" parent="1">
          <mxGeometry x="300" y="280" width="140" height="30" as="geometry" />
        </mxCell>
      </root>
    </mxGraphModel>
  </diagram>
</mxfile>
